<svg width="615" height="630" xmlns="http://www.w3.org/2000/svg" version="1.1" fill="none">

 <g>
  <title>Layer 1</title>
  <g id="svg_1">
   <g id="svg_2">
    <g id="svg_3">
     <path id="svg_4" fill="#FFFFFF" d="m575.06742,205.98518c-6.767,-21.366 -43.824,-81.915 -43.824,-81.915c-8.571,-12.1359 -7.54,-39.9575 -7.54,-39.9575l4.962,-39.6345c5.22,-30.27461 -45.048,-28.46717 -45.048,-28.46717c-109.688,-1.74289 -187.797,7.61705 -216.927,11.81287c-2.642,0.3873 -5.22,0.7746 -7.863,1.2265c-3.093,0.5164 -4.769,0.7746 -4.769,0.7746c-59.162,10.9737 -113.49,40.1509 -155.5091,83.594c-42.0192,43.4432 -69.6668,98.9572 -79.14042,158.9252c-9.47364,59.968 -0.32223,121.421 26.22972,175.902c26.552,54.482 69.1512,99.28 121.9978,128.328c52.846,28.984 113.232,40.732 172.974,33.632c59.742,-7.101 115.746,-32.792 160.472,-73.395c44.662,-40.668 75.789,-94.245 89.001,-153.503c13.276,-59.323 8.056,-121.228 -15.016,-177.323z"/>
    </g>
    <g id="svg_5">
     <path id="svg_6" fill="#DDECFC" fill-rule="evenodd" d="m160.095,590.389c45.306,24.853 95.187,37.634 146.1,37.634c12.052,0 24.168,-0.71 36.284,-2.195c63.222,-7.552 121.739,-34.277 169.236,-77.397c47.368,-43.12 79.785,-99.022 93.77,-161.701c13.985,-62.679 8.636,-127.037 -15.596,-186.23c-7.605,-22.981 -41.31,-78.366 -45.177,-84.692l-0.58,-0.839c-3.158,-4.454 -4.963,-19.0426 -4.705,-29.629l4.834,-38.6017c1.804,-11.1028 -0.903,-21.1083 -7.798,-29.0481c-15.274,-17.49338 -45.886,-17.68704 -52.975,-17.49338c-110.591,-1.67834 -189.989,7.8107 -219.119,12.00658c-2.771,0.4518 -5.413,0.8391 -8.12,1.291l-5.027,0.8392c-62.771,11.6192 -119.419,42.0874 -163.9519,88.1124c-44.5325,46.025 -73.3402,103.928 -83.39382,167.446c-10.05367,63.519 -0.45113,127.554 27.64762,185.262c28.0987,57.709 72.5671,104.444 128.5711,135.235zm108.85,-546.9431c25.972,-3.744 93.383,-11.8775 187.991,-11.8775c8.571,0 17.4,0.0646 26.616,0.3228l0.774,0c10.569,-0.2582 24.876,2.3884 28.614,6.7133c0.322,0.3873 0.773,0.9683 0.387,3.3567l-5.092,40.3446l-0.129,1.3555c-0.193,5.4869 -0.709,33.3727 10.054,49.1877c10.183,16.655 36.992,62.163 42.019,78.043l0.451,1.226c21.912,53.384 26.81,111.416 14.179,167.898c-12.567,56.289 -41.697,106.51 -84.232,145.241c-42.599,38.666 -95.123,62.679 -151.772,69.393c-56.777,6.713 -113.361,-4.261 -163.565,-31.824c-50.268,-27.628 -90.1609,-69.587 -115.424,-121.421c-25.263,-51.835 -33.8344,-109.415 -24.8119,-166.543c9.0225,-57.063 34.9301,-109.091 74.8869,-150.404c39.957,-41.3131 90.805,-68.6828 146.616,-79.011l5.027,-0.8392c2.513,-0.4519 4.962,-0.7746 7.411,-1.1619z"/>
    </g>
   </g>
   <g id="svg_7">
    <path id="svg_8" fill="#00b85c" d="m504.31887,318.06024q0,4.782 -0.242,9.558q-0.242,4.776 -0.726,9.535q-0.483,4.759 -1.207,9.489q-0.724,4.731 -1.686,9.421q-0.962,4.69 -2.161,9.328q-1.198,4.639 -2.63,9.215q-1.431,4.576 -3.093,9.078q-1.662,4.503 -3.549,8.921q-1.888,4.418 -3.997,8.741q-2.108,4.322 -4.433,8.54q-2.326,4.217 -4.861,8.319q-2.536,4.101 -5.276,8.077q-2.74,3.976 -5.678,7.817q-2.939,3.841 -6.068,7.538q-3.129,3.696 -6.441,7.239q-3.312,3.544 -6.8,6.925q-3.488,3.381 -7.142,6.593q-3.655,3.211 -7.467,6.245q-3.813,3.033 -7.775,5.882q-3.961,2.848 -8.062,5.505q-4.101,2.657 -8.332,5.115q-4.23,2.459 -8.58,4.713q-4.35,2.254 -8.809,4.299q-4.459,2.044 -9.016,3.874q-4.556,1.83 -9.2,3.441q-4.644,1.611 -9.364,2.999q-4.72,1.388 -9.504,2.55q-4.785,1.162 -9.622,2.095q-4.838,0.933 -9.717,1.635q-4.879,0.701 -9.787,1.17q-4.909,0.469 -9.835,0.703q-4.926,0.235 -9.859,0.235q-4.932,0 -9.858,-0.235q-4.927,-0.234 -9.835,-0.703q-4.909,-0.469 -9.787,-1.17q-4.879,-0.702 -9.717,-1.635q-4.837,-0.933 -9.622,-2.095q-4.784,-1.162 -9.504,-2.55q-4.72,-1.388 -9.364,-2.999q-4.644,-1.611 -9.201,-3.441q-4.557,-1.83 -9.015,-3.874q-4.459,-2.045 -8.809,-4.299q-4.35,-2.254 -8.5803,-4.713q-4.2306,-2.458 -8.3316,-5.115q-4.101,-2.657 -8.0627,-5.505q-3.9616,-2.849 -7.7743,-5.882q-3.8127,-3.034 -7.4673,-6.245q-3.6545,-3.212 -7.1422,-6.593q-3.4876,-3.381 -6.7999,-6.925q-3.3123,-3.543 -6.4413,-7.239q-3.129,-3.697 -6.0672,-7.538q-2.9381,-3.841 -5.6783,-7.817q-2.7403,-3.976 -5.276,-8.077q-2.5357,-4.102 -4.8607,-8.319q-2.3251,-4.218 -4.4339,-8.54q-2.1088,-4.323 -3.9963,-8.741q-1.8875,-4.418 -3.5491,-8.921q-1.6617,-4.502 -3.09342,-9.078q-1.43176,-4.576 -2.63021,-9.215q-1.19844,-4.638 -2.16068,-9.328q-0.96224,-4.69 -1.68595,-9.421q-0.72372,-4.73 -1.20716,-9.489q-0.48345,-4.759 -0.72546,-9.535q-0.24202,-4.776 -0.24202,-9.558q0,-4.782 0.24202,-9.558q0.24201,-4.776 0.72546,-9.535q0.48344,-4.759 1.20716,-9.489q0.72371,-4.731 1.68595,-9.421q0.96224,-4.69 2.16068,-9.328q1.19845,-4.639 2.63021,-9.215q1.43172,-4.576 3.09342,-9.078q1.6616,-4.503 3.5491,-8.921q1.8875,-4.418 3.9963,-8.741q2.1088,-4.322 4.4339,-8.54q2.325,-4.217 4.8607,-8.3186q2.5357,-4.1016 5.276,-8.0777q2.7402,-3.976 5.6783,-7.8169q2.9382,-3.8409 6.0672,-7.5374q3.129,-3.6965 6.4413,-7.2397q3.3123,-3.5432 6.7999,-6.9246q3.4877,-3.3813 7.1422,-6.5927q3.6546,-3.2113 7.4673,-6.245q3.8127,-3.0336 7.7743,-5.8822q3.9617,-2.8486 8.0627,-5.5053q4.101,-2.6567 8.3316,-5.1151q4.2303,-2.4585 8.5803,-4.7126q4.35,-2.2542 8.809,-4.2988q4.458,-2.0445 9.015,-3.8745q4.557,-1.83 9.201,-3.441q4.644,-1.61096 9.364,-2.99909q4.72,-1.38813 9.504,-2.55005q4.785,-1.16192 9.622,-2.09483q4.838,-0.93291 9.717,-1.63457q4.878,-0.70166 9.787,-1.17037q4.908,-0.46872 9.835,-0.70336q4.926,-0.23463 9.858,-0.23463q4.933,0 9.859,0.23463q4.926,0.23464 9.835,0.70336q4.908,0.46871 9.787,1.17037q4.879,0.70166 9.717,1.63457q4.837,0.93291 9.622,2.09483q4.784,1.16192 9.504,2.55005q4.72,1.38813 9.364,2.99909q4.644,1.611 9.2,3.441q4.557,1.83 9.016,3.8745q4.459,2.0446 8.809,4.2988q4.35,2.2541 8.58,4.7126q4.231,2.4584 8.332,5.1151q4.101,2.6567 8.062,5.5053q3.962,2.8486 7.775,5.8822q3.812,3.0337 7.467,6.245q3.654,3.2114 7.142,6.5927q3.488,3.3814 6.8,6.9246q3.312,3.5432 6.441,7.2397q3.129,3.6965 6.068,7.5374q2.938,3.8409 5.678,7.8169q2.74,3.9761 5.276,8.0777q2.535,4.1016 4.861,8.3186q2.325,4.218 4.433,8.54q2.109,4.323 3.997,8.741q1.887,4.418 3.549,8.921q1.662,4.502 3.093,9.078q1.432,4.576 2.63,9.215q1.199,4.638 2.161,9.328q0.962,4.69 1.686,9.421q0.724,4.73 1.207,9.489q0.484,4.759 0.726,9.535q0.242,4.776 0.242,9.558z"/>
   </g>
   <g id="svg_9">
    <path id="svg_10" fill="#0A1619" d="m474.65279,317.16012q0,4.142 -0.208,8.278q-0.208,4.137 -0.623,8.258q-0.416,4.122 -1.037,8.218q-0.622,4.097 -1.449,8.159q-0.827,4.061 -1.857,8.079q-1.029,4.017 -2.26,7.98q-1.23,3.963 -2.657,7.862q-1.428,3.9 -3.05,7.726q-1.622,3.826 -3.434,7.57q-1.812,3.744 -3.809,7.396q-1.998,3.653 -4.177,7.205q-2.178,3.552 -4.533,6.995q-2.354,3.444 -4.879,6.77q-2.524,3.327 -5.213,6.528q-2.688,3.201 -5.534,6.27q-2.846,3.069 -5.843,5.997q-2.997,2.928 -6.137,5.71q-3.14,2.781 -6.416,5.408q-3.276,2.627 -6.68,5.094q-3.404,2.467 -6.927,4.768q-3.524,2.301 -7.159,4.43q-3.635,2.129 -7.372,4.082q-3.738,1.952 -7.569,3.723q-3.831,1.77 -7.746,3.355q-3.916,1.585 -7.906,2.98q-3.99,1.395 -8.045,2.598q-4.056,1.202 -8.167,2.208q-4.111,1.006 -8.267,1.814q-4.157,0.808 -8.349,1.416q-4.192,0.608 -8.409,1.013q-4.218,0.406 -8.45,0.61q-4.233,0.203 -8.471,0.203q-4.238,0 -8.471,-0.203q-4.233,-0.204 -8.45,-0.61q-4.218,-0.405 -8.41,-1.013q-4.192,-0.608 -8.348,-1.416q-4.157,-0.808 -8.268,-1.814q-4.11,-1.006 -8.166,-2.208q-4.055,-1.203 -8.045,-2.598q-3.991,-1.395 -7.906,-2.98q-3.915,-1.585 -7.7463,-3.355q-3.831,-1.771 -7.5685,-3.723q-3.7375,-1.953 -7.3725,-4.082q-3.635,-2.129 -7.1586,-4.43q-3.5237,-2.301 -6.9276,-4.768q-3.404,-2.467 -6.6799,-5.094q-3.2759,-2.627 -6.416,-5.408q-3.1401,-2.782 -6.1368,-5.71q-2.9966,-2.928 -5.8426,-5.997q-2.846,-3.069 -5.5345,-6.27q-2.6885,-3.201 -5.213,-6.528q-2.5246,-3.326 -4.879,-6.77q-2.3545,-3.443 -4.5332,-6.995q-2.1787,-3.552 -4.1764,-7.205q-1.9978,-3.652 -3.8097,-7.396q-1.812,-3.744 -3.4337,-7.57q-1.6218,-3.826 -3.0495,-7.725q-1.42772,-3.9 -2.65792,-7.863q-1.2302,-3.963 -2.25993,-7.98q-1.02972,-4.018 -1.8565,-8.079q-0.82677,-4.062 -1.4486,-8.159q-0.62183,-4.096 -1.03722,-8.218q-0.41538,-4.121 -0.62333,-8.258q-0.20794,-4.136 -0.20794,-8.278q0,-4.141 0.20794,-8.277q0.20795,-4.137 0.62333,-8.258q0.41539,-4.122 1.03722,-8.218q0.62183,-4.097 1.4486,-8.159q0.82678,-4.062 1.8565,-8.079q1.02973,-4.017 2.25993,-7.98q1.2302,-3.963 2.65792,-7.863q1.4277,-3.899 3.0495,-7.725q1.6217,-3.826 3.4337,-7.5702q1.8119,-3.7438 3.8097,-7.3962q1.9977,-3.6524 4.1764,-7.2046q2.1787,-3.5522 4.5332,-6.9956q2.3544,-3.4435 4.879,-6.7699q2.5245,-3.3264 5.213,-6.5278q2.6885,-3.2013 5.5345,-6.2699q2.846,-3.0686 5.8426,-5.997q2.9967,-2.9284 6.1368,-5.7096q3.1401,-2.7812 6.416,-5.4085q3.2759,-2.6273 6.6799,-5.0943q3.4039,-2.4671 6.9276,-4.7679q3.5237,-2.3009 7.1586,-4.43q3.635,-2.1291 7.3725,-4.0813q3.7375,-1.9523 7.5685,-3.723q3.8313,-1.7706 7.7463,-3.3555q3.915,-1.5848 7.906,-2.98004q3.99,-1.3952 8.045,-2.59739q4.056,-1.20219 8.166,-2.20847q4.111,-1.00628 8.268,-1.81423q4.156,-0.80795 8.348,-1.41562q4.192,-0.60767 8.41,-1.0136q4.217,-0.40593 8.45,-0.60914q4.233,-0.20321 8.471,-0.20321q4.238,0 8.471,0.20321q4.232,0.20321 8.45,0.60914q4.217,0.40593 8.409,1.0136q4.192,0.60767 8.349,1.41562q4.156,0.80795 8.267,1.81423q4.111,1.00628 8.167,2.20847q4.055,1.20219 8.045,2.59739q3.99,1.39524 7.906,2.98004q3.915,1.5849 7.746,3.3555q3.831,1.7707 7.569,3.723q3.737,1.9522 7.372,4.0813q3.635,2.1291 7.159,4.43q3.523,2.3008 6.927,4.7679q3.404,2.467 6.68,5.0943q3.276,2.6273 6.416,5.4085q3.14,2.7812 6.137,5.7096q2.997,2.9284 5.843,5.997q2.846,3.0686 5.534,6.2699q2.689,3.2014 5.213,6.5278q2.525,3.3264 4.879,6.7699q2.355,3.4434 4.533,6.9956q2.179,3.5522 4.177,7.2046q1.997,3.6524 3.809,7.3962q1.812,3.7442 3.434,7.5702q1.622,3.826 3.05,7.725q1.427,3.9 2.657,7.863q1.231,3.963 2.26,7.98q1.03,4.017 1.857,8.079q0.827,4.062 1.448,8.159q0.622,4.096 1.038,8.218q0.415,4.121 0.623,8.258q0.208,4.136 0.208,8.277z"/>
   </g>
   <g id="svg_11">
    <path id="svg_12" fill="#83FFFA" d="m397.53271,378.79337c-4.4512,0 -8.967,-1.558 -12.5795,-4.804c-22.7721,-20.1871 -52.7049,-36.2201 -52.9629,-36.3499c-5.61241,-2.986 -9.41851,-8.6332 -10.06361,-14.9945c-0.6451,-6.3613 1.9353,-12.6577 6.83808,-16.6822c35.86773,-29.6644 63.54253,-39.8555 64.70373,-40.30988c9.8701,-3.57011 20.7723,1.62279 24.3204,11.55418c3.548,9.9314 -1.5483,20.8365 -11.4183,24.4066c-0.3871,0.1299 -12.8376,4.9333 -31.4165,17.3313c10.8377,7.0754 23.6107,16.1629 35.0936,26.4189c7.8702,7.0104 8.5798,19.0839 1.6772,27.0035c-3.6771,4.284 -8.9669,6.426 -14.1922,6.426z"/>
   </g>
   <g id="svg_13">
    <path id="svg_14" fill="#83FFFA" d="m229.68521,385.99115l0,0c-20.0827,0 -36.408,-16.302 -36.408,-36.3562l0,-55.0517c0,-20.0541 16.3253,-36.3561 36.408,-36.3561l0,0c20.0828,0 36.4081,16.302 36.4081,36.3561l0,55.0517c-0.0648,20.1192 -16.3253,36.3562 -36.4081,36.3562z"/>
   </g>
  </g>
 </g>
</svg>